# AST/ASF file generated using VICON BodyLanguage
# -----------------------------------------------
:version 1.10
:name VICON
:units
  mass 1.0
  length 0.45
  angle deg
:documentation
   .ast/.asf automatically generated from VICON data using
   VICON BodyBuilder and BodyLanguage model FoxedUp or BRILLIANT.MOD
:root
   order TX TY TZ RX RY RZ
   axis XYZ
   position 0 0 0  
   orientation 0 0 0 
:bonedata
  begin
     id 1 
     name lhipjoint
     direction 0.722297 -0.617336 0.311742 
     length 2.6635 
     axis 0 0 0  XYZ
  end
  begin
     id 2 
     name lfemur
     direction 0.34202 -0.939693 0  
     length 7.39349  
     axis 0 0 20  XYZ
    dof rx ry rz
    limits (-160.0 20.0)
           (-70.0 70.0)
           (-60.0 70.0)
  end
  begin
     id 3 
     name ltibia
     direction 0.34202 -0.939693 0   
     length 7.36294   
     axis 0 0 20   XYZ
    dof rx
    limits (-10.0 170.0)
  end
  begin
     id 4 
     name lfoot
     direction 0.104879 -0.288152 0.951824   
     length 2.16981   
     axis -90 7.62852e-016 20   XYZ
    dof rx rz
    limits (-45.0 90.0)
           (-70.0 20.0)
  end
  begin
     id 5 
     name ltoes
     direction 1.53586e-011 -4.21895e-011 1   
     length 1.08218   
     axis -90 7.62852e-016 20   XYZ
    dof rx
    limits (-90.0 20.0)
  end
  begin
     id 6 
     name rhipjoint
     direction -0.75102 -0.589393 0.297631   
     length 2.78977  
     axis 0 0 0  XYZ 
  end
  begin
     id 7 
     name rfemur
     direction -0.34202 -0.939693 0   
     length 7.46076   
     axis 0 0 -20   XYZ
    dof rx ry rz
    limits (-160.0 20.0)
           (-70.0 70.0)
           (-70.0 60.0)
  end
  begin
     id 8 
     name rtibia
     direction -0.34202 -0.939693 0   
     length 7.31726   
     axis 0 0 -20   XYZ
    dof rx
    limits (-10.0 170.0)
 end
 begin
     id 9 
     name rfoot
     direction -0.107991 -0.296704 0.948844   
     length 2.09388  
     axis -90 -7.62852e-016 -20   XYZ
    dof rx rz
    limits (-45.0 90.0)
           (-20.0 70.0)
  end
  begin
     id 10 
     name rtoes
     direction -1.53559e-011 -4.21911e-011 1   
     length 1.04433   
     axis -90 -7.62852e-016 -20   XYZ
    dof rx
    limits (-90.0 20.0)
  end
  begin
     id 11 
     name lowerback
     direction 0.0165164 0.98272 0.184358   
     length 1.71896   
     axis 0 0 0   XYZ
    dof rx ry rz
    limits (-20.0 45.0)
           (-30.0 30.0)
           (-30.0 30.0)
  end
  begin
     id 12 
     name upperback
     direction -0.00887249 0.992297 0.123566   
     length 1.71504   
     axis 0 0 0   XYZ
    dof rx ry rz
    limits (-20.0 45.0)
           (-30.0 30.0)
           (-30.0 30.0)
  end
  begin
     id 13 
     name thorax
     direction -0.0157026 0.998908 0.0440032   
     length 1.77022   
     axis 0 0 0   XYZ
    dof rx ry rz
    limits (-20.0 45.0)
           (-30.0 30.0)
           (-30.0 30.0)
  end
  begin
     id 14 
     name lowerneck
     direction -0.0238856 0.998137 0.0561411   
     length 1.89341   
     axis 0 0 0   XYZ
    dof rx ry rz
    limits (-20.0 45.0)
           (-30.0 30.0)
           (-30.0 30.0)
  end
  begin
     id 15 
     name upperneck
     direction 0.0276574 0.952253 -0.304056   
     length 1.86999   
     axis 0 0 0   XYZ
    dof rx ry rz
    limits (-20.0 45.0)
           (-30.0 30.0)
           (-30.0 30.0)
  end
  begin
     id 16
     name head
     direction 0.00800083 0.994258 -0.106712  
     length 1.91492  
     axis 0 0 0   XYZ
    dof rx ry rz
    limits (-20.0 45.0)
           (-30.0 30.0)
           (-30.0 30.0)
  end
  begin
     id 17 
     name lclavicle
     direction 0.97203 0.225407 0.06595  
     length 3.34889  
     axis 0 0 0   XYZ
    dof ry rz
    limits (-20.0 10.0)
           (0.0 20.0)
  end
  begin
     id 18 
     name lhumerus
     direction 1 -4.48973e-011 2.20267e-027   
     length 4.85645   
     axis 180 -30 -90   XYZ
    dof rx ry rz
    limits (-60.0 90.0)
           (-90.0 90.0)
           (-90.0 90.0)
  end
  begin
     id 19
     name lradius
     direction 1 -4.4897e-011 4.60472e-027   
     length 2.79874   
     axis 180 -30 -90   XYZ
    dof rx
    limits (-10.0 170.0)
  end
  begin
     id 20
     name lwrist
     direction 1 -4.48952e-011 1.14928e-026   
     length 1.39937   
     axis -6.29373e-015 90 90   XYZ
    dof ry
    limits (-180.0 0.0)
 end
  begin
     id 21 
     name lhand
     direction 1 -4.48967e-011 2.29886e-026   
     length 0.573398   
     axis -1.46689e-014 90 90   XYZ
    dof rx rz
    limits (-90.0 90.0)
           (-45.0 45.0)
  end
  begin
     id 22 
     name lfingers
     direction 1 -4.48955e-011 4.59726e-026   
     length 0.462289   
     axis -2.93383e-014 90 90   XYZ
    dof rx
    limits (0.0 90.0)
  end
  begin
     id 23
     name lthumb
     direction 0.707107 -6.34866e-011 0.707107   
     length 0.663757   
     axis -90 45 5.69224e-014   XYZ
    dof rx rz
    limits (-45.0 45.0)
           (-45.0 45.0)
  end
  begin
     id 24 
     name rclavicle
     direction -0.981571 0.157346 0.108443   
     length 3.35257  
     axis 0 0 0   XYZ 
    dof ry rz
    limits (-10.0 20.0)
           (-20.0 0.0)
  end
  begin
     id 25 
     name rhumerus
     direction -1 -4.48967e-011 8.58308e-029  
     length 4.67018   
     axis 180 30 90   XYZ
    dof rx ry rz
    limits (-90.0 60.0)
           (-90.0 90.0)
           (-90.0 90.0)
  end
  begin
     id 26 
     name rradius
     direction -1 -4.48958e-011 4.52548e-027   
     length 2.65534   
     axis 180 30 90   XYZ
    dof rx
    limits (-10.0 170.0)
  end
  begin
     id 27 
     name rwrist
     direction -1 -4.48977e-011 1.14952e-026   
     length 1.32767   
     axis -6.29373e-015 -90 -90   XYZ
    dof ry
    limits (-180.0 0.0)
  end
  begin
     id 28
     name rhand
     direction -1 -4.48924e-011 2.29804e-026   
     length 0.594069   
     axis -1.46689e-014 -90 -90   XYZ
    dof rx rz
    limits (-90.0 90.0)
           (-45.0 45.0)
  end
  begin
     id 29
     name rfingers
     direction -1 -4.48998e-011 4.59888e-026   
     length 0.478954   
     axis -2.93383e-014 -90 -90   XYZ
    dof rx
    limits (0.0 90.0)
  end
  begin
     id 30
     name rthumb
     direction -0.707107 -6.34933e-011 0.707107   
     length 0.687685   
     axis -90 -45 -5.69224e-014   XYZ
    dof rx rz
    limits (-45.0 45.0)
           (-45.0 45.0)
  end
:hierarchy
  begin
    root lhipjoint rhipjoint lowerback
    lhipjoint lfemur
    lfemur ltibia
    ltibia lfoot
    lfoot ltoes
    rhipjoint rfemur
    rfemur rtibia
    rtibia rfoot
    rfoot rtoes
    lowerback upperback
    upperback thorax
    thorax lowerneck lclavicle rclavicle
    lowerneck upperneck
    upperneck head
    lclavicle lhumerus
    lhumerus lradius
    lradius lwrist
    lwrist lhand lthumb
    lhand lfingers
    rclavicle rhumerus
    rhumerus rradius
    rradius rwrist
    rwrist rhand rthumb
    rhand rfingers
  end

#!OML:ASF E:\pregnant2\Project 1\Capture day 1\Session 1\pregnant2.ASF
:FULLY-SPECIFIED
:DEGREES
783
root 5.75517 24.8219 -11.1378 -148.44 8.79246 177.956
lowerback -9.80325 -1.04325 -1.58584
upperback -11.6068 0.353571 -0.241291
thorax -6.72455 1.02586 0.557898
lowerneck -12.4058 -6.69354 -1.65901
upperneck 49.9853 4.08917 -6.50637
head 24.4132 3.34944 -1.22244
rclavicle -2.20092e-014 1.49089e-015
rhumerus -51.9319 7.76756 -81.2541
rradius 50.4689
rwrist 6.02991
rhand -11.6825 -12.7364
rfingers 7.12502
rthumb 14.3629 -42.2195
lclavicle -2.20092e-014 1.49089e-015
lhumerus -44.0109 -1.95848 81.1554
lradius 51.9233
lwrist 5.50544
lhand -11.1336 26.9108
lfingers 7.12502
lthumb 14.8918 56.3556
rfemur -68.1278 -5.70954 23.2416
rtibia 92.6047
rfoot -6.37756 -10.3068
rtoes -1.84593
lfemur -55.1463 -3.44951 -30.3725
ltibia 42.9065
lfoot -16.2647 7.55301
ltoes -14.0273
784
root 5.75354 24.8344 -11.205 -148.6 8.834 177.944
lowerback -9.59978 -1.06634 -1.69237
upperback -11.6551 0.324566 -0.21457
thorax -6.89107 1.02226 0.640772
lowerneck -12.1866 -6.73101 -1.68882
upperneck 50.0557 4.19621 -6.60866
head 24.4158 3.4016 -1.24397
rclavicle 1.37286e-014 3.97569e-016
rhumerus -52.2042 7.64404 -80.9504
rradius 50.1995
rwrist 6.11075
rhand -11.5858 -12.6795
rfingers 7.12502
rthumb 14.4562 -42.156
lclavicle 1.37286e-014 3.97569e-016
lhumerus -44.086 -1.82598 81.0047
lradius 52.1985
lwrist 5.53297
lhand -11.0117 26.9145
lfingers 7.12502
lthumb 15.0092 56.3506
rfemur -69.0223 -5.42449 23.2438
rtibia 92.2648
rfoot -7.12609 -10.2478
rtoes -2.68145
lfemur -54.6234 -3.44168 -30.4212
ltibia 42.7924
lfoot -16.4489 7.70828
ltoes -14.1841
785
root 5.74797 24.8409 -11.2624 -148.656 8.74713 178.116
lowerback -9.60088 -1.03569 -1.48309
upperback -11.5377 0.32878 -0.184646
thorax -6.76021 0.995074 0.559486
lowerneck -12.223 -6.73288 -1.74466
upperneck 50.0809 4.22992 -6.59152
head 24.4648 3.40262 -1.21648
rclavicle 5.39203e-015 1.11319e-014
rhumerus -52.1005 7.45093 -80.5934
rradius 49.8628
rwrist 6.24809
rhand -11.5189 -12.4505
rfingers 7.12502
rthumb 14.5206 -41.9224
lclavicle 5.39203e-015 1.11319e-014
lhumerus -43.7851 -1.70957 80.8325
lradius 52.4452
lwrist 5.54574
lhand -10.9428 26.8987
lfingers 7.12502
lthumb 15.0756 56.3298
rfemur -69.9528 -5.12542 23.4889
rtibia 91.7838
rfoot -7.70526 -10.2758
rtoes -3.32579
lfemur -54.2769 -3.47613 -30.2363
ltibia 42.7327
lfoot -16.6042 7.84575
ltoes -14.2001
786
root 5.74735 24.8521 -11.3299 -148.831 8.62273 178.226
lowerback -9.50033 -1.04551 -1.398
upperback -11.4617 0.28909 -0.13383
thorax -6.73148 0.960007 0.565472
lowerneck -12.2101 -6.77296 -1.75902
upperneck 50.1791 4.31874 -6.67213
head 24.5917 3.44338 -1.23656
rclavicle 1.5586e-014 -1.0138e-014
rhumerus -52.2054 7.29571 -80.2304
rradius 49.6135
rwrist 6.38996
rhand -11.1644 -12.6369
rfingers 7.12502
rthumb 14.8621 -42.0838
lclavicle 1.5586e-014 -1.0138e-014
lhumerus -43.6953 -1.58476 80.6899
lradius 52.7022
lwrist 5.54002
lhand -10.9248 26.786
lfingers 7.12502
lthumb 15.0929 56.2158
rfemur -70.6015 -4.87332 23.6606
rtibia 91.1346
rfoot -8.53862 -10.3056
rtoes -3.92733
lfemur -53.7583 -3.52682 -30.0929
ltibia 42.6774
lfoot -16.7871 7.9731
ltoes -14.2302
787
root 5.7439 24.8648 -11.3945 -149.085 8.38293 178.3
lowerback -9.17226 -1.09177 -1.26039
upperback -11.4371 0.195572 -0.0874871
thorax -6.88566 0.895822 0.532288
lowerneck -12.0452 -6.76277 -1.61103
upperneck 50.1521 4.47084 -6.94195
head 24.5301 3.51869 -1.3841
rclavicle -8.56638e-015 1.98785e-016
rhumerus -52.3942 7.17703 -79.8709
rradius 49.3244
rwrist 6.56343
rhand -11.1492 -12.284
rfingers 7.12502
rthumb 14.8767 -41.7299
lclavicle -8.56638e-015 1.98785e-016
lhumerus -43.7262 -1.48382 80.5486
lradius 52.9424
lwrist 5.53868
lhand -10.9028 26.5909
lfingers 7.12502
lthumb 15.1141 56.019
rfemur -71.1224 -4.76187 23.8527
rtibia 90.3682
rfoot -9.25574 -10.4277
rtoes -3.73221
lfemur -53.1519 -3.6936 -29.9365
ltibia 42.6391
lfoot -17.0015 8.13481
ltoes -14.2762
788
root 5.74344 24.8634 -11.459 -149.031 8.49572 178.41
lowerback -9.37257 -1.04447 -1.25566
upperback -11.3497 0.251283 -0.0725158
thorax -6.67828 0.917147 0.55146
lowerneck -12.0427 -6.76985 -1.70013
upperneck 50.1732 4.45687 -6.85658
head 24.5432 3.50141 -1.321
rclavicle 6.3052e-015 -2.98177e-015
rhumerus -52.3782 7.01857 -79.4897
rradius 49.104
rwrist 6.75981
rhand -10.9434 -12.1406
rfingers 7.12502
rthumb 15.075 -41.5717
lclavicle 6.3052e-015 -2.98177e-015
lhumerus -43.5256 -1.3811 80.4029
lradius 53.1841
lwrist 5.47919
lhand -10.7525 26.6934
lfingers 7.12502
lthumb 15.2589 56.1106
rfemur -72.0936 -4.28049 23.9451
rtibia 89.505
rfoot -9.62746 -10.629
rtoes -4.29232
lfemur -52.9596 -3.6952 -29.8439
ltibia 42.6394
lfoot -17.1214 8.39088
ltoes -14.2836
789
root 5.74396 24.8669 -11.5245 -149.106 8.44413 178.409
lowerback -9.35644 -1.07038 -1.31922
upperback -11.3139 0.211478 -0.047869
thorax -6.64683 0.89878 0.612402
lowerneck -11.9633 -6.7914 -1.75471
upperneck 50.2485 4.54214 -6.86991
head 24.6065 3.5387 -1.29428
rclavicle -1.18836e-014 1.21259e-014
rhumerus -52.3248 6.86338 -79.1105
rradius 48.6806
rwrist 6.92639
rhand -10.5714 -12.3357
rfingers 7.12502
rthumb 15.4334 -41.7395
lclavicle -1.18836e-014 1.21259e-014
lhumerus -43.5028 -1.29194 80.2779
lradius 53.4595
lwrist 5.42571
lhand -10.6547 26.5715
lfingers 7.12502
lthumb 15.3531 55.9815
rfemur -72.8306 -4.02052 23.9898
rtibia 88.5431
rfoot -10.126 -10.826
rtoes -4.53753
lfemur -52.5911 -3.81734 -29.8139
ltibia 42.6383
lfoot -17.3312 8.60627
ltoes -14.2983
790
root 5.74053 24.8736 -11.5841 -149.33 8.06292 178.655
lowerback -8.96205 -1.11508 -0.980324
upperback -11.3155 0.117949 0.0656086
thorax -6.86847 0.824666 0.53663
lowerneck -11.8508 -6.81969 -1.71893
upperneck 50.3276 4.65473 -6.98386
head 24.6728 3.60244 -1.33624
rclavicle -1.23371e-014 6.26172e-015
rhumerus -52.4772 6.72374 -78.692
rradius 48.4259
rwrist 7.16767
rhand -10.4098 -12.1093
rfingers 7.12502
rthumb 15.589 -41.5011
lclavicle -1.23371e-014 6.26172e-015
lhumerus -43.6028 -1.22165 80.1701
lradius 53.7073
lwrist 5.36473
lhand -10.6517 26.463
lfingers 7.12502
lthumb 15.356 55.8728
rfemur -73.1648 -3.92586 24.3965
rtibia 87.3928
rfoot -10.5649 -11.0689
rtoes -4.96883
lfemur -52.0973 -4.02315 -29.4323
ltibia 42.707
lfoot -17.5199 8.78736
ltoes -14.4003
791
root 5.74595 24.8595 -11.6386 -149.406 8.29133 178.465
lowerback -8.88013 -1.1051 -1.41385
upperback -11.2367 0.122454 0.0266004
thorax -6.82552 0.846731 0.73956
lowerneck -11.8786 -6.80673 -1.75718
upperneck 50.3257 4.67917 -6.95518
head 24.6842 3.60152 -1.30768
rclavicle 5.30507e-015 -3.47873e-015
rhumerus -52.4066 6.64802 -78.3022
rradius 48.1393
rwrist 7.27416
rhand -10.267 -11.9798
rfingers 7.12502
rthumb 15.7265 -41.3608
lclavicle 5.30507e-015 -3.47873e-015
lhumerus -43.4559 -1.1389 80.0483
lradius 53.9636
lwrist 5.28945
lhand -10.4831 26.4578
lfingers 7.12502
lthumb 15.5184 55.8551
rfemur -74.0204 -3.45635 24.1182
rtibia 86.2674
rfoot -10.8305 -11.3671
rtoes -5.15381
lfemur -51.8699 -4.0294 -29.685
ltibia 42.7743
lfoot -17.7451 9.02921
ltoes -14.3606
792
root 5.7423 24.8614 -11.7064 -149.354 8.10871 178.656
lowerback -8.93885 -1.12126 -1.17666
upperback -11.2545 0.10336 0.10545
thorax -6.81289 0.826441 0.689258
lowerneck -11.7455 -6.82071 -1.80472
upperneck 50.3483 4.743 -6.98882
head 24.6609 3.62615 -1.2995
rclavicle -3.83282e-015 2.68359e-015
rhumerus -52.6666 6.64807 -77.8846
rradius 48.0436
rwrist 7.31523
rhand -10.0423 -11.9861
rfingers 7.12502
rthumb 15.9429 -41.35
lclavicle -3.83282e-015 2.68359e-015
lhumerus -43.5573 -1.10221 79.9667
lradius 54.256
lwrist 5.15026
lhand -10.455 26.3899
lfingers 7.12502
lthumb 15.5455 55.785
rfemur -74.5946 -3.25771 24.3869
rtibia 84.9014
rfoot -11.0582 -11.6257
rtoes -4.39263
lfemur -51.6708 -4.16959 -29.4422
ltibia 42.8917
lfoot -18.014 9.2435
ltoes -14.3051
793
root 5.74164 24.8652 -11.7745 -149.332 7.82872 178.913
lowerback -8.99773 -1.14782 -0.862903
upperback -11.2213 0.056273 0.197323
thorax -6.74402 0.781544 0.61029
lowerneck -11.7719 -6.83913 -1.77052
upperneck 50.4371 4.83023 -7.04488
head 24.7957 3.67584 -1.31628
rclavicle 7.13761e-015 -1.04362e-014
rhumerus -52.7947 6.62997 -77.5052
rradius 47.8311
rwrist 7.34194
rhand -9.81012 -12.0496
rfingers 7.12502
rthumb 16.1665 -41.3954
lclavicle 7.13761e-015 -1.04362e-014
lhumerus -43.5706 -1.05961 79.8424
lradius 54.4835
lwrist 5.03491
lhand -10.3624 26.319
lfingers 7.12502
lthumb 15.6347 55.7072
rfemur -75.0213 -3.05427 24.7401
rtibia 83.4232
rfoot -11.3255 -11.9087
rtoes -4.08639
lfemur -51.437 -4.29759 -29.0981
ltibia 42.9914
lfoot -18.277 9.39647
ltoes -14.2596
794
root 5.74305 24.8628 -11.8353 -149.368 7.64581 179.054
lowerback -8.97741 -1.16286 -0.735265
upperback -11.1678 0.0208228 0.252173
thorax -6.69652 0.750937 0.596727
lowerneck -11.6193 -6.81768 -1.83153
upperneck 50.3663 4.82133 -7.00506
head 24.6347 3.65889 -1.28305
rclavicle -4.93234e-015 -9.93923e-015
rhumerus -52.9375 6.53328 -77.062
rradius 47.7557
rwrist 7.44449
rhand -9.60799 -12.0044
rfingers 7.12502
rthumb 16.3611 -41.3343
lclavicle -4.93234e-015 -9.93923e-015
lhumerus -43.5545 -0.997359 79.7059
lradius 54.7403
lwrist 4.80474
lhand -10.2022 26.2959
lfingers 7.12502
lthumb 15.7889 55.6719
rfemur -75.4157 -2.81153 24.9328
rtibia 81.851
rfoot -11.4803 -12.1591
rtoes -3.91886
lfemur -51.1895 -4.40242 -28.896
ltibia 43.1028
lfoot -18.5137 9.5662
ltoes -14.3706
795
root 5.74815 24.8554 -11.9036 -149.361 7.72177 178.948
lowerback -8.99781 -1.19331 -1.00646
upperback -11.2208 0.00521339 0.259328
thorax -6.74163 0.770175 0.754023
lowerneck -11.466 -6.85585 -1.88299
upperneck 50.4533 4.88321 -7.00412
head 24.6727 3.69774 -1.25172
rclavicle -1.79341e-014 -7.95139e-015
rhumerus -53.1574 6.49275 -76.5986
rradius 47.5536
rwrist 7.51876
rhand -9.39467 -11.9383
rfingers 7.12502
rthumb 16.5665 -41.2511
lclavicle -1.79341e-014 -7.95139e-015
lhumerus -43.7171 -1.01283 79.6384
lradius 54.9841
lwrist 4.68132
lhand -10.1188 26.3058
lfingers 7.12502
lthumb 15.8692 55.6755
rfemur -75.9137 -2.45589 24.7426
rtibia 80.2222
rfoot -11.4356 -12.4091
rtoes -3.4945
lfemur -50.9809 -4.43189 -29.0408
ltibia 43.2052
lfoot -18.8119 9.74947
ltoes -14.4538
796
root 5.75216 24.8496 -11.9673 -149.325 7.64381 178.931
lowerback -9.13065 -1.22344 -1.12165
upperback -11.1438 -0.0376573 0.289087
thorax -6.5807 0.752796 0.850615
lowerneck -11.5232 -6.8415 -1.86696
upperneck 50.4502 4.92433 -7.02579
head 24.7041 3.71057 -1.25911
rclavicle 5.77718e-015 3.97569e-015
rhumerus -53.1663 6.38883 -76.1103
rradius 47.3771
rwrist 7.58328
rhand -9.10717 -12.0268
rfingers 7.12502
rthumb 16.8433 -41.3163
lclavicle 5.77718e-015 3.97569e-015
lhumerus -43.637 -0.959678 79.5463
lradius 55.1749
lwrist 4.49605
lhand -10.0614 26.1511
lfingers 7.12502
lthumb 15.9245 55.5164
rfemur -76.3104 -2.20306 24.694
rtibia 78.4924
rfoot -11.3838 -12.5922
rtoes -2.9938
lfemur -50.7994 -4.49237 -29.0598
ltibia 43.2863
lfoot -19.0348 9.85767
ltoes -14.6252
